<?xml version="1.0" encoding="utf-8"?>
<!-- Generator: Adobe Illustrator 27.6.1, SVG Export Plug-In . SVG Version: 6.00 Build 0)  -->
<svg version="1.1" id="Layer_1" xmlns="http://www.w3.org/2000/svg" xmlns:xlink="http://www.w3.org/1999/xlink" x="0px" y="0px"
	 viewBox="0 0 800 800" style="enable-background:new 0 0 800 800;" xml:space="preserve">
<style type="text/css">
	.st0{fill:#FFFFFF;stroke:#FFFFFF;stroke-width:50;stroke-linecap:round;stroke-linejoin:round;stroke-miterlimit:133.3333;}
	
		.st1{fill:none;stroke:#0F0A39;stroke-width:50;stroke-linecap:round;stroke-linejoin:round;stroke-miterlimit:133.3333;enable-background:new    ;}
</style>
<path class="st0" d="M400,733.3c184.1,0,333.3-149.2,333.3-333.3c0-184.1-149.2-333.3-333.3-333.3C215.9,66.7,66.7,215.9,66.7,400
	C66.7,584.1,215.9,733.3,400,733.3z"/>
<path class="st1" d="M411,581.7c-6,2-16.3,2-22.3,0c-52-17.7-168.7-92-168.7-218C220,308,264.7,263,320,263
	c32.7,0,61.7,15.7,80,40.3c18-24.3,47.3-40.3,80-40.3c55.3,0,100,45,100,100.7C580,489.7,463.3,564,411,581.7z"/>
</svg>
