<?xml version="1.0" encoding="utf-8"?>
<!-- Generator: Adobe Illustrator 27.6.1, SVG Export Plug-In . SVG Version: 6.00 Build 0)  -->
<svg version="1.1" id="Layer_1" xmlns="http://www.w3.org/2000/svg" xmlns:xlink="http://www.w3.org/1999/xlink" x="0px" y="0px"
	 viewBox="0 0 1000 1000" style="enable-background:new 0 0 1000 1000;" xml:space="preserve">
<style type="text/css">
	.st0{fill:#241451;stroke:#241451;stroke-miterlimit:10;}
</style>
<path class="st0" d="M501.1,217.9c103.8-1,195.2,83.7,195.5,195.6c0.2,107.8-88.1,195.2-196.7,195.1
	c-107.1-0.1-195.1-88.5-194.4-196.4C306.2,300.6,397.8,216.9,501.1,217.9z M481.3,562.4c2-0.8,4-1.5,6-2.3
	c17.9-7.3,35.5-15.3,53.6-21.7c34.6-12.2,69.9-18.2,106.3-7.9c4.9,1.4,6.3-2,7.8-5.6c-0.8-0.5-1.3-1-1.9-1.2
	c-1.9-0.6-3.8-1.2-5.7-1.7c-18.8-4.6-37.7-4-56.5-0.6c-39.1,7-74.7,23.6-110.3,40.3c-19.8,8-39.6,16-59.5,24.1
	c1.4,0.9,2.7,1.1,3.8,0.7C443.8,578.4,462.5,570.4,481.3,562.4z M690.1,415.8c0.5-0.2,1-0.4,1.5-0.6c0.2-2.1,0.8-4.2,0.5-6.2
	c-1.8-14-2.5-28.3-5.8-42c-30.8-125.3-175.6-184.2-285.4-116.4c-71.1,43.9-105.6,128.3-85.3,208.9c1.8,7.2,2.2,7.6,9.1,5.3
	c17.2-5.7,34.6-11.2,51.5-17.7c39.9-15.2,78.6-33,114.6-56.3c17.9-11.6,35.7-23.4,53.8-34.5c11.2-6.8,23.4-11.4,37-10
	c10.8,1.1,20.8,4.5,30.4,9.4c21.4,10.9,39.8,26.1,57.7,41.9C676.6,403.6,683.3,409.7,690.1,415.8z M332.9,501.5
	c0.5,5.2,2.9,6.9,7.1,6.6c10.5-0.6,21-1.1,31.4-1.8c22.9-1.4,45.3-5.4,67-12.8c21.7-7.4,40.8-19.5,59.7-32
	c18.7-12.2,37.3-24.5,58.3-32.6c32.2-12.4,63.6-11.9,93.8,5.7c10.7,6.3,20.4,14.3,30.6,21.5c1.5,1,3,2,4.5,2.9
	c0.3-0.5,0.7-0.9,1-1.4c-4.1-3.5-7.9-7.4-12.3-10.5c-11.6-8.3-22.8-17.5-35.4-24.1c-29.5-15.6-59.6-12.3-88.4,2
	c-17.7,8.8-34.6,19.3-51.2,30c-25.5,16.5-52,30.5-81.8,37.3c-22.7,5.2-45.7,7.4-68.8,8.4C343.2,501,338.2,501.2,332.9,501.5z
	 M682.9,466.2c0.6-0.6,1.2-1.3,1.7-1.9c-1.4-0.9-2.9-1.6-4.2-2.6c-5.9-4.6-11.7-9.4-17.7-13.9c-34.7-26-72-30.2-111-11.8
	c-18,8.5-35.1,19.1-51.8,30c-25.8,16.7-52.1,31.6-82.5,38.2c-22.7,5-45.7,7.2-68.9,7.7c-3,0.1-6,0.6-9.1,1c1,4.9,3.5,6.5,7.4,6.2
	c8.8-0.6,17.6-1.2,26.4-1.7c44-2.5,83.8-17,120.7-40.9c18.6-12,38-22.8,58-32.4c22.5-10.8,46.6-14.9,71.6-9.9
	c20,4,36.8,14.2,52.5,26.6C678.2,462.8,680.6,464.5,682.9,466.2z M393.3,569.7c3.7,4.9,7.6,6,13,4.7c27.3-6.7,53.2-17.2,78.7-28.9
	c28.7-13.3,57.2-27.3,87.6-36.4c30.3-9,60.8-13.7,91.8-3.3c3.2,1.1,4.7-0.8,5-3.1c0.2-1.3-1.3-3.7-2.5-4.1
	c-6.8-2.2-13.6-4.7-20.6-5.7c-22.8-3.4-45.2,0.1-67.1,6.4c-30.7,8.9-59.4,22.8-88.2,36.2c-29.9,13.9-60.3,25.8-92.7,32.6
	C396.7,568.4,395.3,569,393.3,569.7z M380.1,559.7c3.1,5,6.7,6.2,11.8,5.2c34.8-6.7,67.4-19.5,99.3-34.4
	c28.7-13.4,57.2-27.3,87.8-35.7c30.1-8.3,60.4-12.4,90.7-0.2c1,0.4,2.4-0.1,3.6-0.1c-0.7-1.1-1.1-3-2-3.3
	c-8.7-3.3-17.2-7.4-26.2-9.2c-24.3-4.9-48-0.3-71.4,6.8c-27.2,8.3-52.7,20.6-78.2,33c-35,16.9-71,30.4-109.5,36.5
	C384.2,558.5,382.4,559.1,380.1,559.7z M666.9,461.1c0.2-0.2,0.5-0.5,0.7-0.7c-0.8-0.7-1.6-1.5-2.5-2.2
	c-28.8-21.1-60.3-26.9-94.6-16.4c-24.5,7.5-46.1,20.7-67.6,34.1c-21.9,13.7-44,27-69,34.7c-25.5,7.9-51.6,11.3-78.2,12.2
	c-3,0.1-6,0.6-9.2,0.9c1.5,4.9,4.2,6.6,8.2,6.1c13.6-1.4,27.2-2.4,40.7-4.3c35.2-4.9,67.1-18.8,97.4-37c23.5-14.2,47-28.5,73.3-37.4
	c29.6-10,59-11.9,87.8,2.6C658.3,456.1,662.5,458.7,666.9,461.1z M355,534.7c1.9,4.9,4.4,7,9,6.7c20.2-1.5,40-4.9,59.5-10.3
	c28.9-8,54.7-22.6,80.6-37.1c23.3-13.1,46.5-26.2,72.3-33.8c27.9-8.2,55.7-9.8,82.8,3.6c0.6,0.3,1.3,0.2,2,0.4
	c-18.5-12.6-38.8-17.9-61-15.8c-23.3,2.2-44.7,10.5-65,21.6c-19.3,10.5-38.2,21.8-57.4,32.5c-35.6,20-74.2,29.1-114.7,31.5
	C360.4,533.9,357.9,534.3,355,534.7z M337.3,480.7c0.1,0.3,0.2,0.7,0.3,1c2.3-0.3,4.6-0.6,6.9-1c45.6-7.8,86.9-25.9,125.4-51.2
	c22.9-15.1,46.2-29.9,71.5-41c28.4-12.4,56.7-15.6,85.1,0c0.8,0.4,1.8,0.5,2.6,0.8c-3.1-2.9-6.6-5-10.3-6.9
	c-13.8-6.8-28.1-12.3-43.7-10c-11.4,1.7-22.9,4.7-33.7,8.8c-27.6,10.5-52.2,26.7-76.6,42.9c-38.3,25.4-79.1,44.8-123.9,55.3
	C339.7,479.8,338.5,480.3,337.3,480.7z M355.1,483.5c0,0.3,0.1,0.5,0.1,0.8c1.8-0.2,3.5-0.2,5.3-0.5c42.1-6,80.6-21.4,116.2-44.5
	c23.2-15.1,46.2-30.5,71.8-41.4c27.1-11.5,54.2-14.5,81.6-0.7c0.8,0.4,1.9,0.5,2.8,0.7c-16.6-10.5-34.1-17.7-54.2-15.3
	c-14.6,1.7-28.6,5.8-41.3,12.8c-22.9,12.6-45.7,25.5-67.7,39.6c-34.3,21.9-70.6,38.7-110.6,47.3C357.8,482.5,356.5,483,355.1,483.5z
	 M408.5,579.1c3.2,4.5,6.6,2.7,9.9,1.7c28.4-8.3,55-21.1,81.9-33.1c25.9-11.6,51.9-22.7,79.8-28.8c24.2-5.3,48.5-7,72.7-0.2
	c6.3,1.8,7.6,1.1,10.5-4.7c1.2-2.4,0.8-3.8-1.8-4.5c-5-1.3-9.9-3-15-3.7c-23.7-3.4-46.8,0-69.6,6.6c-26.7,7.7-51.8,19.2-76.9,31
	c-28.6,13.3-57.3,26.1-87.9,34.2C411,577.8,410,578.4,408.5,579.1z M645,411.8c-19.8-14-40.9-22.9-65.8-18.6
	c-20.9,3.6-39.6,12.6-57.6,23.2c-21,12.5-41.4,26.1-62.6,38.4c-27.6,16.1-57.5,26.3-88.9,31.7c-1.6,0.3-3.1,0.8-4.6,1.2
	c2.6,0.7,5,0.5,7.3,0.2c0.8-0.1,1.6-0.2,2.5-0.3c40.2-5,77.1-18.8,110.9-41.2c20.7-13.7,41.3-27.6,64.2-37.6
	c23.5-10.3,47.7-15.1,72.8-6.7C630.7,404.9,637.7,408.6,645,411.8z M660.3,430.3c0.2-0.2,0.4-0.5,0.5-0.7c-0.6-0.7-1.1-1.5-1.8-2.1
	c-10.7-8-21.8-15.3-34.4-20c-22.7-8.5-44.9-5.5-66.8,3.1c-22.2,8.7-41.9,21.9-61.7,34.8c-22.5,14.7-45.8,27.9-71.6,36.1
	c-27.2,8.6-55.2,12.3-83.6,13.4c-3.2,0.1-6.3,0.6-9.5,0.9c1.1,1.2,2,1.4,3,1.3c14-0.9,27.9-1.6,41.9-2.7
	c40.4-3.3,77.8-15.3,111.9-37.7c19.6-12.8,39.5-25.5,60.6-35.8c36.7-17.9,73.1-16.9,107.4,7.2C657.5,428.9,659,429.6,660.3,430.3z
	 M676.8,487.3c-2-1.6-2.9-2.8-4.2-3.4c-7.8-3.8-15.3-8.4-23.4-11c-22.2-7.2-44.5-4.5-66.5,1.5c-28.4,7.6-54.4,20.8-80.1,34.6
	c-39.7,21.3-80.8,37.9-126,42.9c-1.3,0.1-2.5,0.8-3.8,1.3c0.1,0.5,0.1,1,0.2,1.5c1.8,0.1,3.7,0.6,5.5,0.2c14.7-3,29.5-5.7,43.9-9.4
	c29.5-7.6,56.8-21,84.2-34c23.9-11.3,48-22.5,73.8-29.2c31.8-8.3,63.4-11,93.9,5.1C674.6,487.5,675,487.3,676.8,487.3z M690,423.7
	c0.2-0.2,0.4-0.5,0.7-0.7c-0.7-0.8-1.2-1.8-2-2.5c-15.2-13.2-30.2-26.7-45.9-39.4c-14.4-11.7-29.8-21.9-47.8-27.6
	c-13.2-4.2-26.2-4.1-38.9,2c-6,2.9-12.1,5.7-17.7,9.3c-17.8,11.4-35,23.8-53.1,34.7C435,429.9,381.2,452.4,325,469.4
	c-1.7,0.5-3.3,1.3-5,1.9c0.2,0.5,0.4,1,0.5,1.6c4.3-1,8.6-1.9,12.8-3.1c54.1-16.2,104.9-39.8,153.4-68.3
	c18.8-11.1,37.2-22.8,56-33.9c22.8-13.5,46.1-13.9,69.6-1.8c7.4,3.8,15,7.5,21.5,12.6c17.2,13.4,33.9,27.4,50.8,41.2
	C686.5,420.9,688.2,422.3,690,423.7z M366.2,545.9c0,0.7,0,1.3,0.1,2c1.7,0.1,3.4,0.4,5.1,0.2c25.5-3.1,50.9-7.6,74.6-17.9
	c25.9-11.3,51.2-24.1,76.7-36.5c22.1-10.7,44.3-20.8,68.5-25.9c25.9-5.4,51.3-5.5,75.5,7.1c0.5,0.2,1.1,0.1,2.2,0.3
	c-7.2-6.7-22.7-13.3-35.4-15.5c-23.4-4-45.8,0.5-67.6,8.5c-26.4,9.7-50.5,24.1-74.8,38c-34.4,19.7-70.7,33.4-110.3,37.8
	C375.9,544.6,371,545.3,366.2,545.9z M459.8,597.8c0.1,0.8,0.2,1.6,0.3,2.5c2.7-0.3,5.6,0,8.2-0.9c6.3-2.2,12.3-5.1,18.5-7.5
	c25.9-10,52.4-17.5,80.4-17.8c10.8-0.1,21.6,0.1,32.4,0.2c5,0.1,8.6-2.2,12.2-6.7c-21.2-3.6-41.3-3.6-61.4-0.5
	C518.4,571.8,488.9,584.3,459.8,597.8z M448,595c0.2,0.7,0.4,1.3,0.6,1.9c1.9-0.6,3.9-1,5.7-1.7c13.2-5.6,26.2-11.5,39.5-16.9
	c38.2-15.6,77.8-22,118.9-15.5c6.4,1,10-1.8,13.8-6.5c-0.6-0.4-1-0.7-1.5-0.9c-1.3-0.4-2.5-0.7-3.8-1c-24.4-4.4-48.7-3.6-72.9,1.8
	c-27.8,6.2-53.8,17.5-79.6,29.3C461.8,588.6,454.9,591.8,448,595z M475.8,601.3c4.8,2.5,8.2,2.7,13.2,0.8
	c29.5-11.2,60-17.6,91.7-16.9c5.2,0.1,9.2-2.6,12.9-6.1C552.3,575.2,513.7,584.5,475.8,601.3z M503.5,558.3c1.2-0.1,1.6,0,1.9-0.1
	c3.4-1.3,6.8-2.6,10.3-3.9c39.8-15.4,80.4-23.9,123-13.1c4.5,1.2,6.5-1.8,7.7-5.5C620.9,521.7,540.9,534.2,503.5,558.3z
	 M636.7,546.4c-23.5-14.2-116.4,1-146.2,24.3c2-0.7,3-1,4.1-1.4c43.1-18.4,87.3-28.3,134.3-17.9
	C633.1,552.3,635.1,549.8,636.7,546.4z M649,396.9c0.4-0.8,0.8-1.6,1.2-2.5c-11.5-7.4-22.8-15.4-34.7-22.2
	c-12.4-7.1-25.8-11.8-40.5-10.6c-16.5,1.2-30.3,9.5-44,17.7c-0.1,0,0.1,0.5,0.3,1.9C574.2,357.3,612.9,367.2,649,396.9z
	 M447.1,429.1c-40,19.2-80.6,36.7-123.4,48.8C368,469.9,409.5,454.4,447.1,429.1z M569.1,591.1c-12.7-2.9-59.3,6.2-67.1,12.9
	C525,603,547.5,599.5,569.1,591.1z M641.9,395.1c-0.4,0.4-0.8,0.9-1.2,1.3c16.2,13.5,32.5,27.1,48.7,40.6c0.5-0.6,1-1.2,1.5-1.8
	C674.6,421.9,658.3,408.5,641.9,395.1z M688.5,442.1c-2.5-7.3-36.8-35.1-40.8-34.5C661.2,419,674.9,430.6,688.5,442.1z M663.2,423.6
	c-0.4,0.4-0.7,0.8-1.1,1.2c8.3,7.3,16.7,14.5,25,21.8c0.4-0.5,0.8-0.9,1.2-1.4C679.9,438,671.6,430.8,663.2,423.6z M354.1,490.2
	c0-0.5-0.1-0.9-0.1-1.4c-8.5,0.5-17,1-25.6,1.5c0.1,0.8,0.1,1.5,0.2,2.3C337.1,491.8,345.6,491,354.1,490.2z M346.7,486
	c-0.1-0.5-0.2-1.1-0.3-1.6c-6.7,0.7-13.4,1.4-20.1,2c0.1,0.7,0.2,1.5,0.3,2.2C333.3,487.7,340,486.8,346.7,486z M446.2,584.6
	c-0.2-0.4-0.5-0.8-0.7-1.2c-4.7,1.9-9.4,3.8-14.2,5.8c0.2,0.5,0.5,1.1,0.7,1.6C436.8,588.8,441.5,586.7,446.2,584.6z"/>
<g>
	<g>
		<path class="st0" d="M396.1,646c10.1,0,16.6,2,21,6.3c3.5,3.5,6.1,8.5,6.1,15.4c0,8.4-3.5,15.3-9,19.4c-5.5,4.1-12.5,5.7-21.3,5.7
			h-16.9v-2c6.2-0.6,6.5-1.1,6.5-7V655c0-6.2-0.9-6.5-6.5-7.1v-2L396.1,646L396.1,646z M388.8,683.2c0,5.4,2.3,6.9,7.7,6.9
			c13,0,19.6-8.9,19.6-21.5c0-7.8-2.7-13.8-8.4-17.3c-3.3-2.1-7.5-2.9-12.3-2.9c-3.2,0-5,0.4-5.7,1c-0.6,0.4-0.9,1.2-0.9,4V683.2z"
			/>
		<path class="st0" d="M454.1,692.8v-2c4.7-0.6,5.3-1.3,4.2-4c-0.9-2.8-2.4-6.4-3.9-10.9h-15.5c-1.1,3.2-2.2,6-3.2,9
			c-1.6,4.7-0.6,5.3,5.3,6v2h-16.6v-2c4.5-0.6,5.7-1.1,8.2-7.6l14.9-37.8l2.3-0.4c4.5,12.3,9.5,25.9,14,38.4c2.3,6.3,3,6.8,8.1,7.4
			v2L454.1,692.8L454.1,692.8z M446.9,654.4c-2.3,6.2-4.8,12.8-6.9,18.4h13.5L446.9,654.4z"/>
		<path class="st0" d="M516.4,693.3c-0.9,0-1.7-0.1-2.7-0.1c-5.3-0.4-8.1-1.7-11.2-6.2c-2.7-3.7-5.3-8.2-7.6-11.9
			c-1.4-2.3-2.4-2.7-6-2.7h-2.5v11.3c0,6.1,0.8,6.5,6.5,7.1v2h-19.2v-2c6-0.7,6.5-0.9,6.5-7.1V655c0-6.1-0.8-6.3-6.5-7v-2h18.4
			c5.3,0,8.8,0.7,11.5,2.5c3,1.9,4.9,5.1,4.9,9.5c0,6.2-4,10.1-9.3,12.4c1.3,2.2,4.4,7.1,6.5,10.3c2.7,3.8,4,5.6,5.7,7.4
			c1.9,2.1,3.6,2.9,5.3,3.3L516.4,693.3z M489.8,669.9c3.7,0,6.1-0.6,7.9-2.1c2.8-2.1,4-5,4-8.9c0-7.7-5.1-10.5-10.7-10.5
			c-2.1,0-3.3,0.3-3.8,0.7c-0.6,0.5-0.9,1.2-0.9,3.1v17.6L489.8,669.9L489.8,669.9z"/>
		<path class="st0" d="M542.5,667.4c6.9,1.2,12.5,4.5,12.5,11.5c0,4.9-2.7,8.8-7,11.1c-3.7,2.1-7.4,2.8-12.5,2.8h-17.7v-2
			c6.1-0.6,6.5-1.2,6.5-6.9V655c0-6-0.7-6.5-6.5-7v-2h18.9c5.4,0,8.8,0.9,11.1,2.5c2.5,1.7,4.2,4.4,4.2,8.1
			C552,663.3,546.5,666.4,542.5,667.4z M534.2,666.5c7.9,0,11.2-3.2,11.2-9.1c0-5-3.1-8.9-10-8.9c-2,0-3.3,0.2-4,0.7
			c-0.6,0.4-0.8,1.2-0.8,3.5v13.8H534.2z M530.5,683.7c0,5.2,1.2,6.5,6.3,6.5c5.6,0,11.1-3,11.1-10.6c0-7.3-5.2-10.5-14-10.5h-3.5
			L530.5,683.7L530.5,683.7z"/>
		<path class="st0" d="M602,692.8v-2c4.7-0.6,5.3-1.3,4.2-4c-0.9-2.8-2.4-6.4-3.9-10.9h-15.5c-1.2,3.2-2.2,6-3.2,9
			c-1.6,4.7-0.6,5.3,5.3,6v2h-16.6v-2c4.5-0.6,5.7-1.1,8.2-7.6l14.9-37.8l2.3-0.4c4.5,12.3,9.5,25.9,14,38.4c2.3,6.3,3,6.8,8.1,7.4
			v2L602,692.8L602,692.8z M594.8,654.4c-2.3,6.2-4.8,12.8-6.9,18.4h13.5L594.8,654.4z"/>
		<path class="st0" d="M621.5,692.8v-2c5.9-0.7,6.5-0.9,6.5-7.1v-28.6c0-6.2-0.6-6.5-6.5-7.1v-2h19.3v2c-6,0.7-6.5,0.9-6.5,7.1v28.6
			c0,6.2,0.6,6.4,6.5,7.1v2L621.5,692.8L621.5,692.8z"/>
	</g>
</g>
<g>
	<g>
		<g>
			<g>
				<path class="st0" d="M497.4,303.1l3.7-0.2c0.3,0,0.6,0.1,0.9,0.1l2.8,0.1c0.5,0,1,0,1.4,0.1c0.2,0,0.4,0.3,0.5,0.5
					c-0.2,0.1-0.4,0.2-0.6,0.2c-1.3-0.1-2.5-0.2-3.8-0.2c-1.1,0-2.2,0.1-3.3,0.1c-0.2,0-0.4-0.1-0.6-0.1c-0.5-0.1-1-0.4-1.7-0.3
					c-0.1,0-0.3-0.2-0.5-0.2c0.2-0.1,0.3-0.2,0.5-0.3c0.2,0,0.5,0,0.7,0L497.4,303.1z"/>
				<path class="st0" d="M497.4,308.2l3.5,0.6l5.6,0.9c0.4,0.1,0.8,0.1,1.2,0.2c0.2,0.1,0.4,0.5,0.3,0.6c-0.1,0.3-0.2,0.3-0.6,0.2
					c-0.8-0.3-1.6-0.3-2.5-0.5c-1-0.2-2.1-0.5-3.1-0.8c-0.5-0.1-1-0.3-1.5-0.3l-4-0.6c-0.2,0-0.3,0-0.5-0.1c-0.1,0-0.1-0.1-0.2-0.2
					c0.1-0.1,0.2-0.2,0.3-0.2C496.4,308.1,496.9,308.1,497.4,308.2L497.4,308.2z"/>
				<path class="st0" d="M496.6,305.4l4.5,0.5c0.5,0,1,0.2,1.4,0.1c1.5-0.1,2.7,0.3,4,0.6c0.2,0,0.4,0.2,0.5,0.3
					c-0.2,0-0.5,0.2-0.7,0.1l-6.1-0.9c-0.9-0.1-1.8-0.2-2.7-0.3c-0.4-0.1-0.8-0.2-1.2-0.4L496.6,305.4z"/>
			</g>
			<g>
				<path class="st0" d="M496.3,310.4l3.6,0.5c0.3,0,0.6,0.2,0.9,0.3l2.7,0.6c0.5,0.1,0.9,0.2,1.4,0.4c0.2,0.1,0.3,0.4,0.4,0.6
					c-0.2,0-0.5,0.1-0.7,0.1c-1.2-0.3-2.4-0.7-3.7-1c-1.1-0.2-2.2-0.3-3.3-0.5c-0.2,0-0.4-0.1-0.6-0.2c-0.5-0.2-0.9-0.6-1.6-0.6
					c-0.1,0-0.3-0.2-0.4-0.3c0.2-0.1,0.4-0.2,0.6-0.2C495.9,310.2,496.1,310.3,496.3,310.4L496.3,310.4z"/>
				<path class="st0" d="M495.3,315.4l3.3,1.3l5.3,1.9c0.4,0.1,0.8,0.2,1.2,0.5c0.1,0.1,0.3,0.5,0.2,0.7c-0.1,0.3-0.3,0.3-0.6,0.1
					c-0.7-0.4-1.5-0.6-2.3-1c-1-0.4-1.9-0.9-2.9-1.4c-0.5-0.2-0.9-0.5-1.4-0.6l-3.8-1.4c-0.1,0-0.3-0.1-0.4-0.2
					c-0.1-0.1-0.1-0.2-0.2-0.3c0.1,0,0.2-0.1,0.3-0.1C494.3,315.1,494.8,315.2,495.3,315.4L495.3,315.4z"/>
				<path class="st0" d="M495.1,312.5l4.3,1.4c0.4,0.1,0.9,0.4,1.3,0.4c1.5,0.2,2.6,0.8,3.8,1.4c0.2,0.1,0.3,0.3,0.5,0.4
					c-0.2,0-0.5,0.1-0.7,0l-5.8-2c-0.9-0.3-1.8-0.5-2.6-0.8c-0.4-0.1-0.7-0.4-1.1-0.6L495.1,312.5z"/>
			</g>
			<g>
				<path class="st0" d="M493.9,317.4l3.5,1.2c0.3,0.1,0.5,0.3,0.8,0.4l2.5,1.2c0.4,0.2,0.9,0.4,1.3,0.7c0.2,0.1,0.2,0.5,0.3,0.7
					c-0.2,0-0.5,0-0.7-0.1c-1.1-0.5-2.2-1.2-3.4-1.6c-1-0.4-2.1-0.7-3.1-1.1c-0.2-0.1-0.4-0.2-0.5-0.3c-0.5-0.3-0.8-0.8-1.4-0.9
					c-0.1,0-0.2-0.3-0.4-0.4c0.2,0,0.4-0.1,0.6,0C493.5,317,493.7,317.2,493.9,317.4L493.9,317.4z"/>
				<path class="st0" d="M491.9,322l3,1.9l4.8,2.9c0.4,0.2,0.8,0.4,1,0.7c0.1,0.1,0.2,0.6,0,0.7c-0.2,0.2-0.4,0.2-0.6-0.1
					c-0.6-0.6-1.4-0.9-2.1-1.4c-0.9-0.6-1.7-1.3-2.6-1.9c-0.4-0.3-0.8-0.6-1.2-0.9l-3.5-2.1c-0.1-0.1-0.3-0.2-0.4-0.3
					c-0.1-0.1-0.1-0.2-0.1-0.3c0.1,0,0.2-0.1,0.3,0C491,321.5,491.4,321.8,491.9,322L491.9,322z"/>
				<path class="st0" d="M492.3,319.2l4,2.2c0.4,0.2,0.8,0.5,1.2,0.7c1.4,0.5,2.4,1.3,3.5,2.1c0.2,0.1,0.2,0.3,0.4,0.5
					c-0.2,0-0.5,0-0.7-0.1l-5.3-3.1c-0.8-0.5-1.6-0.9-2.4-1.3c-0.4-0.2-0.6-0.5-1-0.8L492.3,319.2z"/>
			</g>
			<g>
				<path class="st0" d="M490.1,323.7l3.2,1.9c0.2,0.1,0.4,0.4,0.7,0.6l2.2,1.6c0.4,0.3,0.8,0.6,1.1,0.9c0.1,0.1,0.1,0.5,0.1,0.7
					c-0.2-0.1-0.5-0.1-0.6-0.2c-1-0.8-2-1.6-3-2.3c-0.9-0.6-1.9-1.1-2.8-1.7c-0.2-0.1-0.3-0.3-0.5-0.4c-0.4-0.4-0.6-0.9-1.2-1.2
					c-0.1,0-0.2-0.3-0.3-0.5c0.2,0,0.4,0,0.6,0.1C489.7,323.3,489.9,323.5,490.1,323.7L490.1,323.7z"/>
				<path class="st0" d="M487.2,327.9l2.5,2.5l4.1,3.8c0.3,0.3,0.7,0.5,0.9,0.9c0.1,0.1,0,0.6-0.1,0.7c-0.2,0.2-0.4,0.1-0.6-0.2
					c-0.5-0.7-1.2-1.2-1.8-1.8c-0.7-0.8-1.4-1.6-2.2-2.4c-0.3-0.4-0.7-0.8-1-1.1l-3-2.7c-0.1-0.1-0.2-0.2-0.3-0.4
					c0-0.1,0-0.2-0.1-0.3c0.1,0,0.2,0,0.3,0C486.5,327.2,486.9,327.5,487.2,327.9L487.2,327.9z"/>
				<path class="st0" d="M488.1,325.1l3.5,2.9c0.4,0.3,0.7,0.7,1.1,0.9c1.3,0.7,2.1,1.8,3,2.8c0.1,0.2,0.2,0.4,0.3,0.6
					c-0.2-0.1-0.5-0.1-0.6-0.3l-4.5-4.1c-0.7-0.6-1.4-1.1-2.1-1.8c-0.3-0.3-0.5-0.6-0.8-1L488.1,325.1z"/>
			</g>
			<g>
				<path class="st0" d="M485.1,329.2l2.7,2.4c0.2,0.2,0.4,0.5,0.5,0.7l1.9,2c0.3,0.4,0.7,0.7,0.9,1.1c0.1,0.2,0,0.5,0,0.7
					c-0.2-0.1-0.5-0.1-0.6-0.3c-0.9-0.9-1.6-1.9-2.5-2.8c-0.8-0.8-1.6-1.5-2.5-2.2c-0.1-0.1-0.3-0.3-0.4-0.5c-0.3-0.5-0.4-1-1-1.4
					c-0.1-0.1-0.1-0.3-0.2-0.5c0.2,0,0.4,0.1,0.6,0.2C484.9,328.7,485,328.9,485.1,329.2L485.1,329.2z"/>
				<path class="st0" d="M481.5,332.8l2,2.9l3.3,4.5c0.2,0.3,0.5,0.6,0.7,1c0.1,0.2-0.1,0.6-0.2,0.7c-0.3,0.2-0.4,0-0.6-0.3
					c-0.3-0.8-1-1.4-1.4-2.1c-0.6-0.9-1.1-1.8-1.7-2.8c-0.3-0.4-0.5-0.9-0.8-1.3l-2.4-3.3c-0.1-0.1-0.2-0.3-0.2-0.4
					c0-0.1,0-0.2,0-0.3c0.1,0,0.2,0,0.3,0.1C480.9,332,481.2,332.4,481.5,332.8L481.5,332.8z"/>
				<path class="st0" d="M482.9,330.2l2.9,3.5c0.3,0.4,0.6,0.8,0.9,1.1c1.1,1,1.7,2.1,2.4,3.3c0.1,0.2,0.1,0.4,0.1,0.6
					c-0.2-0.1-0.5-0.2-0.6-0.4l-3.7-4.9c-0.5-0.7-1.2-1.4-1.7-2.1c-0.2-0.3-0.4-0.7-0.6-1.1L482.9,330.2z"/>
			</g>
			<g>
				<path class="st0" d="M479.2,333.6l2.2,2.9c0.2,0.2,0.2,0.5,0.4,0.8l1.5,2.4c0.2,0.4,0.5,0.8,0.7,1.3c0.1,0.2-0.1,0.5-0.1,0.7
					c-0.2-0.1-0.4-0.2-0.5-0.4c-0.6-1.1-1.2-2.2-1.9-3.3c-0.6-0.9-1.3-1.8-2-2.7c-0.1-0.2-0.2-0.4-0.3-0.6c-0.2-0.5-0.2-1.1-0.7-1.5
					c-0.1-0.1,0-0.4-0.1-0.5c0.2,0.1,0.4,0.1,0.5,0.3C479,333.1,479.1,333.3,479.2,333.6L479.2,333.6z"/>
				<path class="st0" d="M475,336.4l1.4,3.2l2.4,5.1c0.2,0.4,0.4,0.7,0.5,1.1c0,0.2-0.2,0.6-0.4,0.6c-0.3,0.1-0.4,0-0.5-0.4
					c-0.2-0.8-0.7-1.5-1-2.3c-0.4-1-0.7-2-1.1-3c-0.2-0.5-0.3-1-0.5-1.4l-1.8-3.7c-0.1-0.1-0.1-0.3-0.2-0.4c0-0.1,0-0.2,0.1-0.3
					c0.1,0.1,0.2,0.1,0.3,0.1C474.5,335.5,474.8,335.9,475,336.4L475,336.4z"/>
				<path class="st0" d="M476.9,334.2l2.1,4c0.2,0.4,0.4,0.9,0.6,1.2c0.9,1.2,1.2,2.4,1.7,3.7c0.1,0.2,0,0.4,0,0.6
					c-0.2-0.2-0.4-0.3-0.5-0.5l-2.6-5.5c-0.4-0.8-0.9-1.6-1.3-2.4c-0.2-0.4-0.2-0.8-0.4-1.2L476.9,334.2z"/>
			</g>
			<g>
				<path class="st0" d="M472.5,336.7l1.6,3.3c0.1,0.3,0.1,0.6,0.2,0.9l1,2.6c0.2,0.5,0.4,0.9,0.4,1.4c0,0.2-0.2,0.5-0.3,0.7
					c-0.1-0.2-0.4-0.3-0.4-0.5c-0.4-1.2-0.8-2.4-1.2-3.6c-0.4-1-1-2-1.4-3c-0.1-0.2-0.1-0.4-0.1-0.6c-0.1-0.5,0-1.1-0.4-1.6
					c-0.1-0.1,0-0.4,0-0.5c0.1,0.1,0.3,0.2,0.5,0.4C472.5,336.2,472.5,336.5,472.5,336.7L472.5,336.7z"/>
				<path class="st0" d="M467.8,338.7l0.7,3.4l1.3,5.5c0.1,0.4,0.2,0.8,0.3,1.2c0,0.2-0.3,0.5-0.5,0.5c-0.3,0-0.4-0.1-0.4-0.5
					c0-0.8-0.4-1.6-0.5-2.5c-0.2-1.1-0.3-2.1-0.5-3.2c-0.1-0.5-0.1-1-0.3-1.5l-1-4c0-0.1-0.1-0.3-0.1-0.5c0-0.1,0.1-0.2,0.1-0.3
					c0.1,0.1,0.2,0.1,0.3,0.2C467.6,337.7,467.7,338.2,467.8,338.7L467.8,338.7z"/>
				<path class="st0" d="M470.1,336.9l1.3,4.4c0.1,0.5,0.2,1,0.4,1.3c0.6,1.3,0.8,2.6,1,4c0,0.2-0.1,0.4-0.1,0.6
					c-0.1-0.2-0.3-0.4-0.4-0.6l-1.5-6c-0.2-0.9-0.5-1.8-0.8-2.6c-0.1-0.4-0.1-0.8-0.1-1.2L470.1,336.9z"/>
			</g>
			<g>
				<path class="st0" d="M465.4,338.5l0.9,3.5c0.1,0.3,0,0.6,0.1,0.9l0.4,2.8c0.1,0.5,0.2,1,0.1,1.4c0,0.2-0.3,0.4-0.4,0.6
					c-0.1-0.2-0.3-0.4-0.3-0.6c-0.2-1.2-0.3-2.5-0.5-3.8c-0.2-1.1-0.5-2.1-0.8-3.2c0-0.2,0-0.4,0-0.6c0-0.6,0.2-1.1,0-1.7
					c0-0.1,0.1-0.4,0.1-0.5c0.1,0.1,0.3,0.3,0.4,0.5C465.4,338,465.4,338.3,465.4,338.5L465.4,338.5z"/>
				<path class="st0" d="M460.4,339.5l0.1,3.5l0.2,5.6c0,0.4,0.1,0.8,0,1.2c0,0.2-0.4,0.5-0.6,0.5c-0.3,0-0.4-0.2-0.3-0.5
					c0.1-0.8,0-1.7,0-2.5c0-1.1,0.1-2.1,0.1-3.2c0-0.5,0.1-1,0-1.5l-0.2-4c0-0.2,0-0.3,0-0.5c0-0.1,0.1-0.2,0.2-0.3
					c0.1,0.1,0.2,0.1,0.2,0.2C460.3,338.5,460.4,339,460.4,339.5L460.4,339.5z"/>
				<path class="st0" d="M463,338.2l0.4,4.5c0,0.5,0,1,0.1,1.4c0.4,1.4,0.2,2.7,0.2,4.1c0,0.2-0.1,0.4-0.2,0.6
					c-0.1-0.2-0.2-0.4-0.3-0.6l-0.3-6.1c-0.1-0.9-0.2-1.8-0.2-2.7c0-0.4,0.1-0.8,0.1-1.2L463,338.2z"/>
			</g>
			<g>
				<path class="st0" d="M458,338.9l0.2,3.7c0,0.3-0.1,0.6-0.1,0.9l-0.1,2.8c0,0.5,0,1-0.1,1.4c0,0.2-0.3,0.4-0.5,0.5
					c-0.1-0.2-0.2-0.4-0.2-0.6c0.1-1.3,0.2-2.5,0.2-3.8c0-1.1-0.1-2.2-0.1-3.3c0-0.2,0.1-0.4,0.1-0.6c0.1-0.5,0.4-1,0.3-1.7
					c0-0.1,0.2-0.3,0.2-0.5c0.1,0.2,0.2,0.3,0.3,0.5c0,0.2,0,0.5,0,0.7L458,338.9z"/>
				<path class="st0" d="M452.9,338.9l-0.6,3.5l-0.9,5.6c-0.1,0.4-0.1,0.8-0.2,1.2c-0.1,0.2-0.5,0.4-0.6,0.3
					c-0.3-0.1-0.3-0.2-0.2-0.6c0.3-0.8,0.3-1.6,0.5-2.5c0.2-1,0.5-2.1,0.8-3.1c0.1-0.5,0.3-1,0.3-1.5l0.6-4c0-0.2,0-0.3,0.1-0.5
					c0-0.1,0.1-0.1,0.2-0.2c0.1,0.1,0.2,0.2,0.2,0.3C453,337.9,453,338.4,452.9,338.9L452.9,338.9z"/>
				<path class="st0" d="M455.7,338.1l-0.5,4.5c0,0.5-0.2,1-0.1,1.4c0.1,1.5-0.3,2.7-0.6,4c0,0.2-0.2,0.4-0.3,0.5
					c0-0.2-0.2-0.5-0.1-0.7l0.9-6.1c0.1-0.9,0.2-1.8,0.3-2.7c0.1-0.4,0.2-0.8,0.4-1.2L455.7,338.1z"/>
			</g>
			<g>
				<path class="st0" d="M450.7,337.8l-0.5,3.6c0,0.3-0.2,0.6-0.3,0.9l-0.6,2.7c-0.1,0.5-0.2,0.9-0.4,1.4c-0.1,0.2-0.4,0.3-0.6,0.4
					c0-0.2-0.1-0.5-0.1-0.7c0.3-1.2,0.7-2.4,1-3.7c0.2-1.1,0.3-2.2,0.5-3.3c0-0.2,0.1-0.4,0.2-0.6c0.2-0.5,0.6-0.9,0.6-1.6
					c0-0.1,0.2-0.3,0.3-0.4c0.1,0.2,0.2,0.4,0.2,0.6C450.9,337.4,450.8,337.6,450.7,337.8L450.7,337.8z"/>
				<path class="st0" d="M445.7,336.8l-1.3,3.3l-1.9,5.3c-0.1,0.4-0.2,0.8-0.5,1.2c-0.1,0.1-0.5,0.3-0.7,0.2
					c-0.3-0.1-0.3-0.3-0.1-0.6c0.4-0.7,0.6-1.5,1-2.3c0.4-1,0.9-1.9,1.4-2.9c0.2-0.5,0.5-0.9,0.6-1.4l1.4-3.8c0-0.1,0.1-0.3,0.2-0.4
					c0.1-0.1,0.2-0.1,0.3-0.2c0,0.1,0.1,0.2,0.1,0.3C446,335.8,445.9,336.3,445.7,336.8L445.7,336.8z"/>
				<path class="st0" d="M448.6,336.6l-1.4,4.3c-0.1,0.4-0.4,0.9-0.4,1.3c-0.2,1.5-0.8,2.6-1.4,3.8c-0.1,0.2-0.3,0.3-0.4,0.5
					c0-0.2-0.1-0.5,0-0.7l2-5.8c0.3-0.9,0.5-1.8,0.8-2.6c0.1-0.4,0.4-0.7,0.6-1.1L448.6,336.6z"/>
			</g>
			<g>
				<path class="st0" d="M443.8,335.4l-1.2,3.5c-0.1,0.3-0.3,0.5-0.4,0.8l-1.2,2.5c-0.2,0.4-0.4,0.9-0.7,1.3
					c-0.1,0.2-0.5,0.2-0.7,0.3c0-0.2,0-0.5,0.1-0.7c0.5-1.1,1.2-2.2,1.6-3.4c0.4-1,0.7-2.1,1.1-3.1c0.1-0.2,0.2-0.4,0.3-0.5
					c0.3-0.5,0.8-0.8,0.9-1.4c0-0.1,0.3-0.2,0.4-0.4c0,0.2,0.1,0.4,0,0.6C444.1,335,443.9,335.2,443.8,335.4L443.8,335.4z"/>
				<path class="st0" d="M439,333.4l-1.9,3l-2.9,4.8c-0.2,0.4-0.4,0.8-0.7,1c-0.1,0.1-0.6,0.2-0.7,0c-0.2-0.2-0.2-0.4,0.1-0.6
					c0.6-0.6,0.9-1.4,1.4-2.1c0.6-0.9,1.3-1.7,1.9-2.6c0.3-0.4,0.6-0.8,0.9-1.2l2.1-3.5c0.1-0.1,0.2-0.3,0.3-0.4
					c0.1-0.1,0.2-0.1,0.3-0.1c0,0.1,0.1,0.2,0,0.3C439.6,332.5,439.3,333,439,333.4L439,333.4z"/>
				<path class="st0" d="M441.9,333.8l-2.2,4c-0.2,0.4-0.5,0.8-0.7,1.2c-0.5,1.4-1.3,2.4-2.1,3.5c-0.1,0.2-0.3,0.2-0.5,0.4
					c0-0.2,0-0.5,0.1-0.7l3.1-5.3c0.5-0.8,0.9-1.6,1.3-2.4c0.2-0.4,0.5-0.6,0.8-1L441.9,333.8z"/>
			</g>
			<g>
				<path class="st0" d="M437.4,331.6l-1.9,3.2c-0.1,0.2-0.4,0.4-0.6,0.7l-1.6,2.2c-0.3,0.4-0.6,0.8-0.9,1.1
					c-0.1,0.1-0.5,0.1-0.7,0.1c0.1-0.2,0.1-0.5,0.2-0.6c0.8-1,1.6-2,2.3-3c0.6-0.9,1.1-1.9,1.7-2.8c0.1-0.2,0.3-0.3,0.4-0.5
					c0.4-0.4,0.9-0.6,1.2-1.2c0-0.1,0.3-0.2,0.5-0.3c0,0.2,0,0.4-0.1,0.6C437.8,331.2,437.6,331.4,437.4,331.6L437.4,331.6z"/>
				<path class="st0" d="M433.2,328.7l-2.5,2.5l-3.8,4.1c-0.3,0.3-0.5,0.7-0.9,0.9c-0.1,0.1-0.6,0-0.7-0.1c-0.2-0.2-0.1-0.4,0.2-0.6
					c0.7-0.5,1.2-1.2,1.8-1.8c0.8-0.7,1.6-1.4,2.4-2.2c0.4-0.3,0.8-0.7,1.1-1l2.7-3c0.1-0.1,0.2-0.2,0.4-0.3c0.1,0,0.2,0,0.3-0.1
					c0,0.1,0,0.2,0,0.3C433.9,328,433.6,328.4,433.2,328.7L433.2,328.7z"/>
				<path class="st0" d="M436,329.6l-2.9,3.5c-0.3,0.4-0.7,0.7-0.9,1.1c-0.7,1.3-1.8,2.1-2.8,3c-0.2,0.1-0.4,0.2-0.6,0.3
					c0.1-0.2,0.1-0.5,0.3-0.6l4.1-4.5c0.6-0.7,1.1-1.4,1.8-2.1c0.3-0.3,0.6-0.5,1-0.8L436,329.6z"/>
			</g>
			<g>
				<path class="st0" d="M431.9,326.6l-2.4,2.7c-0.2,0.2-0.5,0.4-0.7,0.5l-2,1.9c-0.4,0.3-0.7,0.7-1.1,0.9c-0.2,0.1-0.5,0-0.7,0
					c0.1-0.2,0.1-0.5,0.3-0.6c0.9-0.9,1.9-1.6,2.8-2.5c0.8-0.8,1.5-1.6,2.2-2.5c0.1-0.1,0.3-0.3,0.5-0.4c0.5-0.3,1-0.4,1.4-1
					c0.1-0.1,0.3-0.1,0.5-0.2c0,0.2-0.1,0.4-0.2,0.6C432.4,326.4,432.2,326.5,431.9,326.6L431.9,326.6z"/>
				<path class="st0" d="M428.3,323l-2.9,2l-4.5,3.3c-0.3,0.2-0.6,0.5-1,0.7c-0.2,0.1-0.6-0.1-0.7-0.2c-0.2-0.3,0-0.4,0.3-0.6
					c0.8-0.3,1.4-1,2.1-1.4c0.9-0.6,1.8-1.1,2.8-1.7c0.4-0.3,0.9-0.5,1.3-0.8l3.3-2.4c0.1-0.1,0.3-0.2,0.4-0.2c0.1,0,0.2,0,0.3,0
					c0,0.1,0,0.2-0.1,0.3C429.1,322.4,428.7,322.7,428.3,323L428.3,323z"/>
				<path class="st0" d="M430.9,324.4l-3.5,2.9c-0.4,0.3-0.8,0.6-1.1,0.9c-1,1.1-2.1,1.7-3.3,2.4c-0.2,0.1-0.4,0.1-0.6,0.1
					c0.1-0.2,0.2-0.5,0.4-0.6l4.9-3.7c0.7-0.5,1.4-1.2,2.1-1.7c0.3-0.2,0.7-0.4,1.1-0.6L430.9,324.4z"/>
			</g>
			<g>
				<path class="st0" d="M427.5,320.7l-2.9,2.2c-0.2,0.2-0.5,0.2-0.8,0.4l-2.4,1.5c-0.4,0.2-0.8,0.5-1.3,0.7
					c-0.2,0.1-0.5-0.1-0.7-0.1c0.1-0.2,0.2-0.4,0.4-0.5c1.1-0.6,2.2-1.2,3.3-1.9c0.9-0.6,1.8-1.3,2.7-2c0.2-0.1,0.4-0.2,0.6-0.3
					c0.5-0.2,1.1-0.2,1.5-0.7c0.1-0.1,0.4,0,0.5-0.1c-0.1,0.2-0.1,0.4-0.3,0.5C428,320.5,427.8,320.6,427.5,320.7L427.5,320.7z"/>
				<path class="st0" d="M424.7,316.5l-3.2,1.4l-5.1,2.4c-0.4,0.2-0.7,0.4-1.1,0.5c-0.2,0-0.6-0.2-0.6-0.4c-0.1-0.3,0-0.4,0.4-0.5
					c0.8-0.2,1.5-0.7,2.3-1c1-0.4,2-0.7,3-1.1c0.5-0.2,1-0.3,1.4-0.5l3.7-1.8c0.1-0.1,0.3-0.1,0.4-0.2c0.1,0,0.2,0,0.3,0.1
					c-0.1,0.1-0.1,0.2-0.1,0.3C425.6,316,425.2,316.2,424.7,316.5L424.7,316.5z"/>
				<path class="st0" d="M426.9,318.4l-4,2.1c-0.4,0.2-0.9,0.4-1.2,0.6c-1.2,0.9-2.4,1.2-3.7,1.7c-0.2,0.1-0.4,0-0.6,0
					c0.2-0.2,0.3-0.4,0.5-0.5l5.5-2.6c0.8-0.4,1.6-0.9,2.4-1.3c0.4-0.2,0.8-0.2,1.2-0.4L426.9,318.4z"/>
			</g>
			<g>
				<path class="st0" d="M424.4,314l-3.3,1.6c-0.3,0.1-0.6,0.1-0.9,0.2l-2.6,1c-0.5,0.2-0.9,0.4-1.4,0.4c-0.2,0-0.5-0.2-0.7-0.3
					c0.2-0.1,0.3-0.4,0.5-0.4c1.2-0.4,2.4-0.8,3.6-1.2c1-0.4,2-1,3-1.4c0.2-0.1,0.4-0.1,0.6-0.1c0.5-0.1,1.1,0,1.6-0.4
					c0.1-0.1,0.4,0,0.5,0c-0.1,0.1-0.2,0.3-0.4,0.5C424.9,314,424.6,314,424.4,314L424.4,314z"/>
				<path class="st0" d="M422.4,309.3l-3.4,0.7l-5.5,1.3c-0.4,0.1-0.8,0.2-1.2,0.3c-0.2,0-0.5-0.3-0.5-0.5c0-0.3,0.1-0.4,0.5-0.4
					c0.8,0,1.6-0.4,2.5-0.5c1.1-0.2,2.1-0.3,3.2-0.5c0.5-0.1,1-0.1,1.5-0.3l4-1c0.1,0,0.3-0.1,0.5-0.1c0.1,0,0.2,0.1,0.3,0.1
					c-0.1,0.1-0.1,0.2-0.2,0.3C423.4,309.1,422.9,309.2,422.4,309.3L422.4,309.3z"/>
				<path class="st0" d="M424.2,311.6l-4.4,1.3c-0.5,0.1-1,0.2-1.3,0.4c-1.3,0.6-2.6,0.8-4,1c-0.2,0-0.4-0.1-0.6-0.1
					c0.2-0.1,0.4-0.3,0.6-0.4l6-1.5c0.9-0.2,1.8-0.5,2.6-0.8c0.4-0.1,0.8-0.1,1.2-0.1L424.2,311.6z"/>
			</g>
			<g>
				<path class="st0" d="M422.6,306.9l-3.5,0.9c-0.3,0.1-0.6,0-0.9,0.1l-2.8,0.4c-0.5,0.1-1,0.2-1.4,0.1c-0.2,0-0.4-0.3-0.6-0.4
					c0.2-0.1,0.4-0.3,0.6-0.3c1.2-0.2,2.5-0.3,3.8-0.5c1.1-0.2,2.1-0.5,3.2-0.8c0.2,0,0.4,0,0.6,0c0.6,0,1.1,0.2,1.7,0
					c0.1,0,0.4,0.1,0.5,0.1c-0.1,0.1-0.3,0.3-0.5,0.4C423.1,306.9,422.8,306.9,422.6,306.9L422.6,306.9z"/>
				<path class="st0" d="M421.6,301.9l-3.5,0.1l-5.6,0.2c-0.4,0-0.8,0.1-1.2,0c-0.2,0-0.5-0.4-0.5-0.6c0-0.3,0.2-0.4,0.5-0.3
					c0.8,0.1,1.7,0,2.5,0c1.1,0,2.1,0.1,3.2,0.1c0.5,0,1,0.1,1.5,0l4-0.2c0.2,0,0.3,0,0.5,0c0.1,0,0.2,0.1,0.3,0.2
					c-0.1,0.1-0.1,0.2-0.2,0.2C422.6,301.8,422.1,301.9,421.6,301.9L421.6,301.9z"/>
				<path class="st0" d="M422.9,304.5l-4.5,0.4c-0.5,0-1,0-1.4,0.1c-1.4,0.4-2.7,0.2-4.1,0.2c-0.2,0-0.4-0.1-0.6-0.2
					c0.2-0.1,0.4-0.2,0.6-0.3l6.1-0.3c0.9-0.1,1.8-0.2,2.7-0.2c0.4,0,0.8,0.1,1.2,0.1L422.9,304.5z"/>
			</g>
			<g>
				<path class="st0" d="M422.2,299.5l-3.7,0.2c-0.3,0-0.6-0.1-0.9-0.1l-2.8-0.1c-0.5,0-1,0-1.4-0.1c-0.2,0-0.4-0.3-0.5-0.5
					c0.2-0.1,0.4-0.2,0.6-0.2c1.3,0.1,2.5,0.2,3.8,0.2c1.1,0,2.2-0.1,3.3-0.1c0.2,0,0.4,0.1,0.6,0.1c0.5,0.1,1,0.4,1.7,0.3
					c0.1,0,0.3,0.2,0.5,0.2c-0.2,0.1-0.3,0.2-0.5,0.3c-0.2,0-0.5,0-0.7,0L422.2,299.5z"/>
				<path class="st0" d="M422.2,294.4l-3.5-0.6l-5.6-0.9c-0.4-0.1-0.8-0.1-1.2-0.2c-0.2-0.1-0.4-0.5-0.3-0.6
					c0.1-0.3,0.2-0.3,0.6-0.2c0.8,0.3,1.6,0.3,2.5,0.5c1,0.2,2.1,0.5,3.1,0.8c0.5,0.1,1,0.3,1.5,0.3l4,0.6c0.2,0,0.3,0,0.5,0.1
					c0.1,0,0.1,0.1,0.2,0.2c-0.1,0.1-0.2,0.2-0.3,0.2C423.2,294.5,422.7,294.5,422.2,294.4L422.2,294.4z"/>
				<path class="st0" d="M423,297.2l-4.5-0.5c-0.5,0-1-0.2-1.4-0.1c-1.5,0.1-2.7-0.3-4-0.6c-0.2,0-0.4-0.2-0.5-0.3
					c0.2,0,0.5-0.2,0.7-0.1l6.1,0.9c0.9,0.1,1.8,0.2,2.7,0.3c0.4,0.1,0.8,0.2,1.2,0.4L423,297.2z"/>
			</g>
			<g>
				<path class="st0" d="M423.3,292.2l-3.6-0.5c-0.3,0-0.6-0.2-0.9-0.3l-2.7-0.6c-0.5-0.1-0.9-0.2-1.4-0.4c-0.2-0.1-0.3-0.4-0.4-0.6
					c0.2,0,0.5-0.1,0.7-0.1c1.2,0.3,2.4,0.7,3.7,1c1.1,0.2,2.2,0.3,3.3,0.5c0.2,0,0.4,0.1,0.6,0.2c0.5,0.2,0.9,0.6,1.6,0.6
					c0.1,0,0.3,0.2,0.4,0.3c-0.2,0.1-0.4,0.2-0.6,0.2C423.7,292.4,423.5,292.3,423.3,292.2L423.3,292.2z"/>
				<path class="st0" d="M424.3,287.2l-3.3-1.3l-5.3-1.9c-0.4-0.1-0.8-0.2-1.2-0.5c-0.1-0.1-0.3-0.5-0.2-0.7
					c0.1-0.3,0.3-0.3,0.6-0.1c0.7,0.4,1.5,0.6,2.3,1c1,0.4,1.9,0.9,2.9,1.4c0.5,0.2,0.9,0.5,1.4,0.6l3.8,1.4c0.1,0,0.3,0.1,0.4,0.2
					c0.1,0.1,0.1,0.2,0.2,0.3c-0.1,0-0.2,0.1-0.3,0.1C425.3,287.5,424.8,287.4,424.3,287.2L424.3,287.2z"/>
				<path class="st0" d="M424.5,290.1l-4.3-1.4c-0.4-0.1-0.9-0.4-1.3-0.4c-1.5-0.2-2.6-0.8-3.8-1.4c-0.2-0.1-0.3-0.3-0.5-0.4
					c0.2,0,0.5-0.1,0.7,0l5.8,2c0.9,0.3,1.8,0.5,2.6,0.8c0.4,0.1,0.7,0.4,1.1,0.6L424.5,290.1z"/>
			</g>
			<g>
				<path class="st0" d="M425.7,285.2l-3.5-1.2c-0.3-0.1-0.5-0.3-0.8-0.4l-2.5-1.2c-0.4-0.2-0.9-0.4-1.3-0.7
					c-0.2-0.1-0.2-0.5-0.3-0.7c0.2,0,0.5,0,0.7,0.1c1.1,0.5,2.2,1.2,3.4,1.6c1,0.4,2.1,0.7,3.1,1.1c0.2,0.1,0.4,0.2,0.5,0.3
					c0.5,0.3,0.8,0.8,1.4,0.9c0.1,0,0.2,0.3,0.4,0.4c-0.2,0-0.4,0.1-0.6,0C426.1,285.6,425.9,285.4,425.7,285.2L425.7,285.2z"/>
				<path class="st0" d="M427.7,280.5l-3-1.9l-4.8-2.9c-0.4-0.2-0.8-0.4-1-0.7c-0.1-0.1-0.2-0.6,0-0.7c0.2-0.2,0.4-0.2,0.6,0.1
					c0.6,0.6,1.4,0.9,2.1,1.4c0.9,0.6,1.7,1.3,2.6,1.9c0.4,0.3,0.8,0.6,1.2,0.9l3.5,2.1c0.1,0.1,0.3,0.2,0.4,0.3
					c0.1,0.1,0.1,0.2,0.1,0.3c-0.1,0-0.2,0.1-0.3,0C428.6,281.1,428.1,280.8,427.7,280.5L427.7,280.5z"/>
				<path class="st0" d="M427.3,283.4l-4-2.2c-0.4-0.2-0.8-0.5-1.2-0.7c-1.4-0.5-2.4-1.3-3.5-2.1c-0.2-0.1-0.2-0.3-0.4-0.5
					c0.2,0,0.5,0,0.7,0.1l5.3,3.1c0.8,0.5,1.6,0.9,2.4,1.3c0.4,0.2,0.6,0.5,1,0.8L427.3,283.4z"/>
			</g>
			<g>
				<path class="st0" d="M429.5,278.9l-3.2-1.9c-0.2-0.1-0.4-0.4-0.7-0.6l-2.2-1.6c-0.4-0.3-0.8-0.6-1.1-0.9
					c-0.1-0.1-0.1-0.5-0.1-0.7c0.2,0.1,0.5,0.1,0.6,0.2c1,0.8,2,1.6,3,2.3c0.9,0.6,1.9,1.1,2.8,1.7c0.2,0.1,0.3,0.3,0.5,0.4
					c0.4,0.4,0.6,0.9,1.2,1.2c0.1,0,0.2,0.3,0.3,0.5c-0.2,0-0.4,0-0.6-0.1C429.9,279.3,429.7,279.1,429.5,278.9L429.5,278.9z"/>
				<path class="st0" d="M432.4,274.7l-2.5-2.5l-4.1-3.8c-0.3-0.3-0.7-0.5-0.9-0.9c-0.1-0.1,0-0.6,0.1-0.7c0.2-0.2,0.4-0.1,0.6,0.2
					c0.5,0.7,1.2,1.2,1.8,1.8c0.7,0.8,1.4,1.6,2.2,2.4c0.3,0.4,0.7,0.8,1,1.1l3,2.7c0.1,0.1,0.2,0.2,0.3,0.4c0,0.1,0,0.2,0.1,0.3
					c-0.1,0-0.2,0-0.3,0C433.1,275.4,432.7,275.1,432.4,274.7L432.4,274.7z"/>
				<path class="st0" d="M431.5,277.5l-3.5-2.9c-0.4-0.3-0.7-0.7-1.1-0.9c-1.3-0.7-2.1-1.8-3-2.8c-0.1-0.2-0.2-0.4-0.3-0.6
					c0.2,0.1,0.5,0.1,0.6,0.3l4.5,4.1c0.7,0.6,1.4,1.1,2.1,1.8c0.3,0.3,0.5,0.6,0.8,1L431.5,277.5z"/>
			</g>
			<g>
				<path class="st0" d="M434.5,273.4l-2.7-2.4c-0.2-0.2-0.4-0.5-0.5-0.7l-1.9-2c-0.3-0.4-0.7-0.7-0.9-1.1c-0.1-0.2,0-0.5,0-0.7
					c0.2,0.1,0.5,0.1,0.6,0.3c0.9,0.9,1.6,1.9,2.5,2.8c0.8,0.8,1.6,1.5,2.5,2.2c0.1,0.1,0.3,0.3,0.4,0.5c0.3,0.5,0.4,1,1,1.4
					c0.1,0.1,0.1,0.3,0.2,0.5c-0.2,0-0.4-0.1-0.6-0.2C434.7,273.9,434.6,273.7,434.5,273.4L434.5,273.4z"/>
				<path class="st0" d="M438.1,269.8l-2-2.9l-3.3-4.5c-0.2-0.3-0.5-0.6-0.7-1c-0.1-0.2,0.1-0.6,0.2-0.7c0.3-0.2,0.4,0,0.6,0.3
					c0.3,0.8,1,1.4,1.4,2.1c0.6,0.9,1.1,1.8,1.7,2.8c0.3,0.4,0.5,0.9,0.8,1.3l2.4,3.3c0.1,0.1,0.2,0.3,0.2,0.4c0,0.1,0,0.2,0,0.3
					c-0.1,0-0.2,0-0.3-0.1C438.7,270.6,438.4,270.2,438.1,269.8L438.1,269.8z"/>
				<path class="st0" d="M436.7,272.4l-2.9-3.5c-0.3-0.4-0.6-0.8-0.9-1.1c-1.1-1-1.7-2.1-2.4-3.3c-0.1-0.2-0.1-0.4-0.1-0.6
					c0.2,0.1,0.5,0.2,0.6,0.4l3.7,4.9c0.5,0.7,1.2,1.4,1.7,2.1c0.2,0.3,0.4,0.7,0.6,1.1L436.7,272.4z"/>
			</g>
			<g>
				<path class="st0" d="M440.4,269l-2.2-2.9c-0.2-0.2-0.2-0.5-0.4-0.8l-1.5-2.4c-0.2-0.4-0.5-0.8-0.7-1.3c-0.1-0.2,0.1-0.5,0.1-0.7
					c0.2,0.1,0.4,0.2,0.5,0.4c0.6,1.1,1.2,2.2,1.9,3.3c0.6,0.9,1.3,1.8,2,2.7c0.1,0.2,0.2,0.4,0.3,0.6c0.2,0.5,0.2,1.1,0.7,1.5
					c0.1,0.1,0,0.4,0.1,0.5c-0.2-0.1-0.4-0.1-0.5-0.3C440.6,269.5,440.5,269.3,440.4,269L440.4,269z"/>
				<path class="st0" d="M444.6,266.2l-1.4-3.2l-2.4-5.1c-0.2-0.4-0.4-0.7-0.5-1.1c0-0.2,0.2-0.6,0.4-0.6c0.3-0.1,0.4,0,0.5,0.4
					c0.2,0.8,0.7,1.5,1,2.3c0.4,1,0.7,2,1.1,3c0.2,0.5,0.3,1,0.5,1.4l1.8,3.7c0.1,0.1,0.1,0.3,0.2,0.4c0,0.1,0,0.2-0.1,0.3
					c-0.1-0.1-0.2-0.1-0.3-0.1C445.1,267.1,444.9,266.7,444.6,266.2L444.6,266.2z"/>
				<path class="st0" d="M442.8,268.4l-2.1-4c-0.2-0.4-0.4-0.9-0.6-1.2c-0.9-1.2-1.2-2.4-1.7-3.7c-0.1-0.2,0-0.4,0-0.6
					c0.2,0.2,0.4,0.3,0.5,0.5l2.6,5.5c0.4,0.8,0.9,1.6,1.3,2.4c0.2,0.4,0.2,0.8,0.4,1.2L442.8,268.4z"/>
			</g>
			<g>
				<path class="st0" d="M447.1,265.9l-1.6-3.3c-0.1-0.3-0.1-0.6-0.2-0.9l-1-2.6c-0.2-0.5-0.4-0.9-0.4-1.4c0-0.2,0.2-0.5,0.3-0.7
					c0.1,0.2,0.4,0.3,0.4,0.5c0.4,1.2,0.8,2.4,1.2,3.6c0.4,1,1,2,1.4,3c0.1,0.2,0.1,0.4,0.1,0.6c0.1,0.5,0,1.1,0.4,1.6
					c0.1,0.1,0,0.4,0,0.5c-0.1-0.1-0.3-0.2-0.5-0.4C447.1,266.4,447.1,266.1,447.1,265.9L447.1,265.9z"/>
				<path class="st0" d="M451.8,263.9l-0.7-3.4l-1.3-5.5c-0.1-0.4-0.2-0.8-0.3-1.2c0-0.2,0.3-0.5,0.5-0.6c0.3,0,0.4,0.1,0.4,0.5
					c0,0.8,0.4,1.6,0.5,2.5c0.2,1.1,0.3,2.1,0.5,3.2c0.1,0.5,0.1,1,0.3,1.5l1,4c0,0.1,0.1,0.3,0.1,0.5c0,0.1-0.1,0.2-0.1,0.3
					c-0.1-0.1-0.2-0.1-0.3-0.2C452,264.9,451.9,264.4,451.8,263.9L451.8,263.9z"/>
				<path class="st0" d="M449.5,265.7l-1.3-4.4c-0.1-0.5-0.2-1-0.4-1.3c-0.6-1.3-0.8-2.6-1-4c0-0.2,0.1-0.4,0.1-0.6
					c0.1,0.2,0.3,0.4,0.4,0.6l1.5,6c0.2,0.9,0.5,1.8,0.8,2.6c0.1,0.4,0.1,0.8,0.1,1.2L449.5,265.7z"/>
			</g>
			<g>
				<path class="st0" d="M454.2,264.1l-0.9-3.5c-0.1-0.3,0-0.6-0.1-0.9l-0.4-2.8c-0.1-0.5-0.2-0.9-0.1-1.4c0-0.2,0.3-0.4,0.4-0.6
					c0.1,0.2,0.3,0.4,0.3,0.6c0.2,1.2,0.3,2.5,0.5,3.8c0.2,1.1,0.5,2.1,0.8,3.2c0,0.2,0,0.4,0,0.6c0,0.6-0.2,1.1,0,1.7
					c0,0.1-0.1,0.4-0.1,0.5c-0.1-0.1-0.3-0.3-0.4-0.5C454.2,264.6,454.2,264.3,454.2,264.1L454.2,264.1z"/>
				<path class="st0" d="M459.2,263.1l-0.1-3.5l-0.2-5.6c0-0.4-0.1-0.8,0-1.2c0-0.2,0.4-0.4,0.6-0.4c0.3,0,0.4,0.2,0.3,0.6
					c-0.1,0.8,0,1.7,0,2.5c0,1.1-0.1,2.1-0.1,3.2c0,0.5-0.1,1,0,1.5l0.2,4c0,0.2,0,0.3,0,0.5c0,0.1-0.1,0.2-0.2,0.3
					c-0.1-0.1-0.2-0.1-0.2-0.2C459.3,264.1,459.2,263.6,459.2,263.1L459.2,263.1z"/>
				<path class="st0" d="M456.6,264.4l-0.4-4.5c0-0.5,0-1-0.1-1.4c-0.4-1.4-0.2-2.7-0.2-4.1c0-0.2,0.1-0.4,0.2-0.6
					c0.1,0.2,0.2,0.4,0.3,0.6l0.3,6.1c0.1,0.9,0.2,1.8,0.2,2.7c0,0.4-0.1,0.8-0.1,1.2L456.6,264.4z"/>
			</g>
			<g>
				<path class="st0" d="M461.6,263.7l-0.2-3.7c0-0.3,0.1-0.6,0.1-0.9l0.1-2.8c0-0.5,0-1,0.1-1.4c0-0.2,0.3-0.4,0.5-0.5
					c0.1,0.2,0.2,0.4,0.2,0.6c-0.1,1.3-0.2,2.5-0.2,3.8c0,1.1,0.1,2.2,0.1,3.3c0,0.2-0.1,0.4-0.1,0.6c-0.1,0.5-0.4,1-0.3,1.7
					c0,0.1-0.2,0.3-0.2,0.5c-0.1-0.2-0.2-0.3-0.3-0.5c0-0.2,0-0.5,0-0.7L461.6,263.7z"/>
				<path class="st0" d="M466.7,263.7l0.6-3.5l0.9-5.6c0.1-0.4,0.1-0.8,0.2-1.2c0.1-0.2,0.5-0.4,0.6-0.3c0.3,0.1,0.3,0.2,0.2,0.6
					c-0.3,0.8-0.3,1.6-0.5,2.4c-0.2,1-0.5,2.1-0.8,3.1c-0.1,0.5-0.3,1-0.3,1.5l-0.6,4c0,0.2,0,0.3-0.1,0.5c0,0.1-0.1,0.1-0.2,0.2
					c-0.1-0.1-0.2-0.2-0.2-0.3C466.6,264.7,466.6,264.2,466.7,263.7L466.7,263.7z"/>
				<path class="st0" d="M463.9,264.5l0.5-4.5c0-0.5,0.2-1,0.1-1.4c-0.1-1.5,0.3-2.7,0.6-4c0-0.2,0.2-0.4,0.3-0.5
					c0,0.2,0.2,0.5,0.1,0.7l-0.9,6.1c-0.1,0.9-0.2,1.8-0.3,2.7c-0.1,0.4-0.2,0.8-0.4,1.2L463.9,264.5z"/>
			</g>
			<g>
				<path class="st0" d="M468.9,264.8l0.5-3.6c0-0.3,0.2-0.6,0.3-0.9l0.6-2.7c0.1-0.5,0.2-0.9,0.4-1.4c0.1-0.2,0.4-0.3,0.6-0.4
					c0,0.2,0.1,0.5,0.1,0.7c-0.3,1.2-0.7,2.4-1,3.7c-0.2,1.1-0.3,2.2-0.5,3.3c0,0.2-0.1,0.4-0.2,0.6c-0.2,0.5-0.6,0.9-0.6,1.6
					c0,0.1-0.2,0.3-0.3,0.4c-0.1-0.2-0.2-0.4-0.2-0.6C468.7,265.2,468.8,265,468.9,264.8L468.9,264.8z"/>
				<path class="st0" d="M473.9,265.8l1.3-3.3l1.9-5.3c0.1-0.4,0.2-0.8,0.5-1.2c0.1-0.1,0.5-0.3,0.7-0.2c0.3,0.1,0.3,0.3,0.1,0.6
					c-0.4,0.7-0.6,1.5-1,2.3c-0.4,1-0.9,1.9-1.4,2.9c-0.2,0.5-0.5,0.9-0.6,1.4L474,267c0,0.1-0.1,0.3-0.2,0.4
					c-0.1,0.1-0.2,0.1-0.3,0.2c0-0.1-0.1-0.2-0.1-0.3C473.6,266.8,473.7,266.3,473.9,265.8L473.9,265.8z"/>
				<path class="st0" d="M471,266l1.4-4.3c0.1-0.4,0.4-0.9,0.4-1.3c0.2-1.5,0.8-2.6,1.4-3.8c0.1-0.2,0.3-0.3,0.4-0.5
					c0,0.2,0.1,0.5,0,0.7l-2,5.8c-0.3,0.9-0.5,1.8-0.8,2.6c-0.1,0.4-0.4,0.7-0.6,1.1L471,266z"/>
			</g>
			<g>
				<path class="st0" d="M475.9,267.2l1.2-3.5c0.1-0.3,0.3-0.5,0.4-0.8l1.2-2.5c0.2-0.4,0.4-0.9,0.7-1.3c0.1-0.2,0.5-0.2,0.7-0.3
					c0,0.2,0,0.5-0.1,0.7c-0.5,1.1-1.2,2.2-1.6,3.4c-0.4,1-0.7,2.1-1.1,3.1c-0.1,0.2-0.2,0.4-0.3,0.5c-0.3,0.5-0.8,0.8-0.9,1.4
					c0,0.1-0.3,0.2-0.4,0.4c0-0.2-0.1-0.4,0-0.6C475.5,267.6,475.7,267.4,475.9,267.2L475.9,267.2z"/>
				<path class="st0" d="M480.5,269.2l1.9-3l2.9-4.8c0.2-0.4,0.4-0.8,0.7-1c0.1-0.1,0.6-0.2,0.7,0c0.2,0.2,0.2,0.4-0.1,0.6
					c-0.6,0.6-0.9,1.4-1.4,2.1c-0.6,0.9-1.3,1.7-1.9,2.6c-0.3,0.4-0.6,0.8-0.9,1.2l-2.1,3.5c-0.1,0.1-0.2,0.3-0.3,0.4
					c-0.1,0.1-0.2,0.1-0.3,0.1c0-0.1-0.1-0.2,0-0.3C480,270.1,480.3,269.7,480.5,269.2L480.5,269.2z"/>
				<path class="st0" d="M477.7,268.8l2.2-4c0.2-0.4,0.5-0.8,0.7-1.2c0.5-1.4,1.3-2.4,2.1-3.5c0.1-0.2,0.3-0.2,0.5-0.4
					c0,0.2,0,0.5-0.1,0.7l-3.1,5.3c-0.5,0.8-0.9,1.6-1.3,2.4c-0.2,0.4-0.5,0.6-0.8,1L477.7,268.8z"/>
			</g>
			<g>
				<path class="st0" d="M482.2,271l1.9-3.2c0.1-0.2,0.4-0.4,0.6-0.7l1.6-2.2c0.3-0.4,0.6-0.8,0.9-1.1c0.1-0.1,0.5-0.1,0.7-0.1
					c-0.1,0.2-0.1,0.5-0.2,0.6c-0.8,1-1.6,2-2.3,3c-0.6,0.9-1.1,1.9-1.7,2.8c-0.1,0.2-0.3,0.3-0.4,0.5c-0.4,0.4-0.9,0.6-1.2,1.2
					c0,0.1-0.3,0.2-0.5,0.3c0-0.2,0-0.4,0.1-0.6C481.8,271.4,482,271.2,482.2,271L482.2,271z"/>
				<path class="st0" d="M486.4,273.9l2.5-2.5l3.8-4.1c0.3-0.3,0.5-0.7,0.9-0.9c0.1-0.1,0.6,0,0.7,0.1c0.2,0.2,0.1,0.4-0.2,0.6
					c-0.7,0.5-1.2,1.2-1.8,1.8c-0.8,0.7-1.6,1.4-2.4,2.2c-0.4,0.3-0.8,0.7-1.1,1l-2.7,3c-0.1,0.1-0.2,0.2-0.4,0.3
					c-0.1,0-0.2,0-0.3,0.1c0-0.1,0-0.2,0-0.3C485.7,274.6,486,274.2,486.4,273.9L486.4,273.9z"/>
				<path class="st0" d="M483.6,273l2.9-3.5c0.3-0.4,0.7-0.7,0.9-1.1c0.7-1.3,1.8-2.1,2.8-3c0.2-0.1,0.4-0.2,0.6-0.3
					c-0.1,0.2-0.1,0.5-0.3,0.6l-4.1,4.5c-0.6,0.7-1.1,1.4-1.8,2.1c-0.3,0.3-0.6,0.5-1,0.8L483.6,273z"/>
			</g>
			<g>
				<path class="st0" d="M487.7,276l2.4-2.7c0.2-0.2,0.5-0.4,0.7-0.5l2-1.9c0.4-0.3,0.7-0.7,1.1-0.9c0.2-0.1,0.5,0,0.7,0
					c-0.1,0.2-0.1,0.5-0.3,0.6c-0.9,0.9-1.9,1.6-2.8,2.5c-0.8,0.8-1.5,1.6-2.2,2.5c-0.1,0.1-0.3,0.3-0.5,0.4c-0.5,0.3-1,0.4-1.4,1
					c-0.1,0.1-0.3,0.1-0.5,0.2c0-0.2,0.1-0.4,0.2-0.6C487.2,276.2,487.4,276.1,487.7,276L487.7,276z"/>
				<path class="st0" d="M491.3,279.6l2.9-2l4.5-3.3c0.3-0.2,0.6-0.5,1-0.7c0.2-0.1,0.6,0.1,0.7,0.2c0.2,0.3,0,0.4-0.3,0.6
					c-0.8,0.3-1.4,1-2.1,1.4c-0.9,0.6-1.8,1.1-2.8,1.7c-0.4,0.3-0.9,0.5-1.3,0.8l-3.3,2.4c-0.1,0.1-0.3,0.2-0.4,0.2
					c-0.1,0-0.2,0-0.3,0c0-0.1,0-0.2,0.1-0.3C490.5,280.2,490.9,279.9,491.3,279.6L491.3,279.6z"/>
				<path class="st0" d="M488.7,278.2l3.5-2.9c0.4-0.3,0.8-0.6,1.1-0.9c1-1.1,2.1-1.7,3.3-2.4c0.2-0.1,0.4-0.1,0.6-0.1
					c-0.1,0.2-0.2,0.5-0.4,0.6l-4.9,3.7c-0.7,0.5-1.4,1.2-2.1,1.7c-0.3,0.2-0.7,0.4-1.1,0.6L488.7,278.2z"/>
			</g>
			<g>
				<path class="st0" d="M492.1,281.9l2.9-2.2c0.2-0.2,0.5-0.2,0.8-0.4l2.4-1.5c0.4-0.2,0.8-0.5,1.3-0.7c0.2-0.1,0.5,0.1,0.7,0.1
					c-0.1,0.2-0.2,0.4-0.4,0.5c-1.1,0.6-2.2,1.2-3.3,1.9c-0.9,0.6-1.8,1.3-2.7,2c-0.2,0.1-0.4,0.2-0.6,0.3c-0.5,0.2-1.1,0.2-1.5,0.7
					c-0.1,0.1-0.4,0-0.5,0.1c0.1-0.2,0.1-0.4,0.3-0.5C491.6,282.1,491.8,282,492.1,281.9L492.1,281.9z"/>
				<path class="st0" d="M494.9,286.1l3.2-1.4l5.1-2.4c0.4-0.2,0.7-0.4,1.1-0.5c0.2,0,0.6,0.2,0.6,0.4c0.1,0.3,0,0.4-0.4,0.5
					c-0.8,0.2-1.5,0.7-2.3,1c-1,0.4-2,0.7-3,1.1c-0.5,0.2-1,0.3-1.4,0.5l-3.7,1.8c-0.1,0.1-0.3,0.1-0.4,0.2c-0.1,0-0.2,0-0.3-0.1
					c0.1-0.1,0.1-0.2,0.1-0.3C494,286.6,494.4,286.4,494.9,286.1L494.9,286.1z"/>
				<path class="st0" d="M492.7,284.2l4-2.1c0.4-0.2,0.9-0.4,1.2-0.6c1.2-0.9,2.4-1.2,3.7-1.7c0.2-0.1,0.4,0,0.6,0
					c-0.2,0.2-0.3,0.4-0.5,0.5l-5.5,2.6c-0.8,0.4-1.6,0.9-2.4,1.3c-0.4,0.2-0.8,0.2-1.2,0.4L492.7,284.2z"/>
			</g>
			<g>
				<path class="st0" d="M495.2,288.6l3.3-1.6c0.3-0.1,0.6-0.1,0.9-0.2l2.6-1c0.5-0.2,0.9-0.4,1.4-0.4c0.2,0,0.5,0.2,0.7,0.3
					c-0.2,0.1-0.3,0.4-0.5,0.4c-1.2,0.4-2.4,0.8-3.6,1.2c-1,0.4-2,1-3,1.4c-0.2,0.1-0.4,0.1-0.6,0.1c-0.5,0.1-1.1,0-1.6,0.4
					c-0.1,0.1-0.4,0-0.5,0c0.1-0.1,0.2-0.3,0.4-0.5C494.7,288.6,495,288.6,495.2,288.6L495.2,288.6z"/>
				<path class="st0" d="M497.2,293.3l3.4-0.7l5.5-1.3c0.4-0.1,0.8-0.2,1.2-0.3c0.2,0,0.5,0.3,0.5,0.5c0,0.3-0.1,0.4-0.5,0.4
					c-0.8,0-1.6,0.4-2.5,0.5c-1.1,0.2-2.1,0.3-3.2,0.5c-0.5,0.1-1,0.1-1.5,0.3l-4,1c-0.1,0-0.3,0.1-0.5,0.1c-0.1,0-0.2-0.1-0.3-0.1
					c0.1-0.1,0.1-0.2,0.2-0.3C496.2,293.5,496.7,293.4,497.2,293.3L497.2,293.3z"/>
				<path class="st0" d="M495.4,291l4.4-1.3c0.5-0.1,1-0.2,1.3-0.4c1.3-0.6,2.6-0.8,4-1c0.2,0,0.4,0.1,0.6,0.1
					c-0.2,0.1-0.4,0.3-0.6,0.4l-6,1.5c-0.9,0.2-1.8,0.5-2.6,0.8c-0.4,0.1-0.8,0.1-1.2,0.1L495.4,291z"/>
			</g>
			<g>
				<path class="st0" d="M497,295.7l3.5-0.9c0.3-0.1,0.6,0,0.9-0.1l2.8-0.4c0.5-0.1,1-0.2,1.4-0.1c0.2,0,0.4,0.3,0.6,0.4
					c-0.2,0.1-0.4,0.3-0.6,0.3c-1.2,0.2-2.5,0.3-3.8,0.5c-1.1,0.2-2.1,0.5-3.2,0.8c-0.2,0-0.4,0-0.6,0c-0.6,0-1.1-0.2-1.7,0
					c-0.1,0-0.4-0.1-0.5-0.1c0.1-0.1,0.3-0.3,0.5-0.4C496.5,295.7,496.8,295.7,497,295.7L497,295.7z"/>
				<path class="st0" d="M498,300.7l3.5-0.1l5.6-0.2c0.4,0,0.8-0.1,1.2,0c0.2,0,0.5,0.4,0.5,0.6c0,0.3-0.2,0.4-0.5,0.3
					c-0.8-0.1-1.7,0-2.5,0c-1.1,0-2.1-0.1-3.2-0.1c-0.5,0-1-0.1-1.5,0l-4,0.2c-0.2,0-0.3,0-0.5,0c-0.1,0-0.2-0.1-0.3-0.2
					c0.1-0.1,0.1-0.2,0.2-0.2C497,300.8,497.5,300.7,498,300.7L498,300.7z"/>
				<path class="st0" d="M496.7,298.1l4.5-0.4c0.5,0,1,0,1.4-0.1c1.4-0.4,2.7-0.2,4.1-0.2c0.2,0,0.4,0.1,0.6,0.2
					c-0.2,0.1-0.4,0.2-0.6,0.3l-6.1,0.3c-0.9,0.1-1.8,0.2-2.7,0.2c-0.4,0-0.8-0.1-1.2-0.1L496.7,298.1z"/>
			</g>
		</g>
	</g>
</g>
</svg>
